<?xml version="1.0" encoding="UTF-8"?>
<svg xmlns="http://www.w3.org/2000/svg" viewBox="0 0 1800 360" role="img" aria-labelledby="title desc">
  <title id="title">Bumelerze primary horizontal logo</title>
  <desc id="desc">Signal-red mountain waveform, gold endpoint, and outlined dark Bumelerze wordmark.</desc>
  <g transform="translate(40 27)">
    <path d="M 26.672 161.359 Q 26.500 162.375 26.500 163.500 Q 26.500 164.625 26.641 165.609 Q 26.781 166.594 27.062 167.438 Q 27.344 168.281 27.766 168.984 Q 28.188 169.688 28.750 170.250 Q 29.312 170.812 31.609 171.234 Q 33.906 171.656 37.938 171.938 Q 41.969 172.219 47.734 172.359 Q 53.500 172.500 61.000 172.500 Q 68.500 172.500 74.344 172.438 Q 80.188 172.375 84.375 172.250 Q 88.562 172.125 91.094 171.938 Q 93.625 171.750 94.500 171.500 Q 95.375 171.250 96.406 170.844 Q 97.438 170.438 98.625 169.875 Q 99.812 169.312 101.156 168.594 Q 102.500 167.875 104.000 167.000 Q 105.500 166.125 108.344 163.812 Q 111.188 161.500 115.375 157.750 Q 119.562 154.000 125.094 148.812 Q 130.625 143.625 137.500 137.000 Q 144.375 130.375 149.812 125.469 Q 155.250 120.562 159.250 117.375 Q 163.250 114.188 165.812 112.719 Q 168.375 111.250 169.500 111.500 Q 170.625 111.750 171.906 112.312 Q 173.188 112.875 174.625 113.750 Q 176.062 114.625 177.656 115.812 Q 179.250 117.000 181.000 118.500 Q 182.750 120.000 184.562 121.125 Q 186.375 122.250 188.250 123.000 Q 190.125 123.750 192.062 124.125 Q 194.000 124.500 196.000 124.500 Q 198.000 124.500 201.406 122.531 Q 204.812 120.562 209.625 116.625 Q 214.438 112.688 220.656 106.781 Q 226.875 100.875 234.500 93.000 Q 242.125 85.125 248.000 79.156 Q 253.875 73.188 258.000 69.125 Q 262.125 65.062 264.500 62.906 Q 266.875 60.750 267.500 60.500 Q 268.125 60.250 268.828 60.172 Q 269.531 60.094 270.312 60.188 Q 271.094 60.281 271.953 60.547 Q 272.812 60.812 273.750 61.250 Q 274.688 61.688 277.641 64.797 Q 280.594 67.906 285.562 73.688 Q 290.531 79.469 297.516 87.922 Q 304.500 96.375 313.500 107.500 Q 322.500 118.625 329.703 127.422 Q 336.906 136.219 342.312 142.688 Q 347.719 149.156 351.328 153.297 Q 354.938 157.438 356.750 159.250 Q 358.562 161.062 360.266 162.578 Q 361.969 164.094 363.562 165.312 Q 365.156 166.531 366.641 167.453 Q 368.125 168.375 369.500 169.000 Q 370.875 169.625 372.281 170.094 Q 373.688 170.562 375.125 170.875 Q 376.562 171.188 378.031 171.344 Q 379.500 171.500 381.000 171.500 Q 382.500 171.500 383.875 171.375 Q 385.250 171.250 386.500 171.000 Q 387.750 170.750 388.875 170.375 Q 390.000 170.000 391.000 169.500 Q 392.000 169.000 392.984 168.297 Q 393.969 167.594 394.938 166.688 Q 395.906 165.781 396.859 164.672 Q 397.812 163.562 398.750 162.250 Q 399.688 160.938 400.656 159.219 Q 401.625 157.500 402.625 155.375 Q 403.625 153.250 404.656 150.719 Q 405.688 148.188 406.750 145.250 Q 407.812 142.312 409.125 142.312 Q 410.438 142.312 412.000 145.250 Q 413.562 148.188 415.375 154.062 Q 417.188 159.938 419.250 168.750 Q 421.312 177.562 423.062 184.375 Q 424.812 191.188 426.250 196.000 Q 427.688 200.812 428.812 203.625 Q 429.938 206.438 430.750 207.250 Q 431.562 208.062 432.453 208.609 Q 433.344 209.156 434.312 209.438 Q 435.281 209.719 436.328 209.734 Q 437.375 209.750 438.500 209.500 Q 439.625 209.250 440.578 208.891 Q 441.531 208.531 442.312 208.062 Q 443.094 207.594 443.703 207.016 Q 444.312 206.438 444.750 205.750 Q 445.188 205.062 446.062 202.812 Q 446.938 200.562 448.250 196.750 Q 449.562 192.938 451.312 187.562 Q 453.062 182.188 455.250 175.250 Q 457.438 168.312 459.328 163.484 Q 461.219 158.656 462.812 155.938 Q 464.406 153.219 465.703 152.609 Q 467.000 152.000 468.000 153.500 Q 469.000 155.000 471.469 156.125 Q 473.938 157.250 477.875 158.000 Q 481.812 158.750 487.219 159.125 Q 492.625 159.500 499.500 159.500 Q 506.375 159.500 511.484 159.234 Q 516.594 158.969 519.938 158.438 Q 523.281 157.906 524.859 157.109 Q 526.438 156.312 526.250 155.250 Q 526.062 154.188 525.984 153.203 Q 525.906 152.219 525.938 151.312 Q 525.969 150.406 526.109 149.578 Q 526.250 148.750 526.500 148.000 Q 526.750 147.250 525.453 146.672 Q 524.156 146.094 521.312 145.688 Q 518.469 145.281 514.078 145.047 Q 509.688 144.812 503.750 144.750 Q 497.812 144.688 493.062 144.094 Q 488.312 143.500 484.750 142.375 Q 481.188 141.250 478.812 139.594 Q 476.438 137.938 475.250 135.750 Q 474.062 133.562 472.906 131.750 Q 471.750 129.938 470.625 128.500 Q 469.500 127.062 468.406 126.000 Q 467.312 124.938 466.250 124.250 Q 465.188 123.562 464.234 123.109 Q 463.281 122.656 462.438 122.438 Q 461.594 122.219 460.859 122.234 Q 460.125 122.250 459.500 122.500 Q 458.875 122.750 458.266 123.141 Q 457.656 123.531 457.062 124.062 Q 456.469 124.594 455.891 125.266 Q 455.312 125.938 454.750 126.750 Q 454.188 127.562 453.344 129.500 Q 452.500 131.438 451.375 134.500 Q 450.250 137.562 448.844 141.750 Q 447.438 145.938 445.750 151.250 Q 444.062 156.562 442.250 158.000 Q 440.438 159.438 438.500 157.000 Q 436.562 154.562 434.500 148.250 Q 432.438 141.938 430.250 131.750 Q 428.062 121.562 426.312 113.781 Q 424.562 106.000 423.250 100.625 Q 421.938 95.250 421.062 92.281 Q 420.188 89.312 419.750 88.750 Q 419.312 88.188 418.703 87.703 Q 418.094 87.219 417.312 86.812 Q 416.531 86.406 415.578 86.078 Q 414.625 85.750 413.500 85.500 Q 412.375 85.250 411.328 85.234 Q 410.281 85.219 409.312 85.438 Q 408.344 85.656 407.453 86.109 Q 406.562 86.562 405.750 87.250 Q 404.938 87.938 403.859 90.078 Q 402.781 92.219 401.438 95.812 Q 400.094 99.406 398.484 104.453 Q 396.875 109.500 395.000 116.000 Q 393.125 122.500 391.609 127.516 Q 390.094 132.531 388.938 136.062 Q 387.781 139.594 386.984 141.641 Q 386.188 143.688 385.750 144.250 Q 385.312 144.812 384.891 145.234 Q 384.469 145.656 384.062 145.938 Q 383.656 146.219 383.266 146.359 Q 382.875 146.500 382.500 146.500 Q 382.125 146.500 378.984 143.078 Q 375.844 139.656 369.938 132.812 Q 364.031 125.969 355.359 115.703 Q 346.688 105.438 335.250 91.750 Q 323.812 78.062 314.938 67.562 Q 306.062 57.062 299.750 49.750 Q 293.438 42.438 289.688 38.312 Q 285.938 34.188 284.750 33.250 Q 283.562 32.312 282.328 31.547 Q 281.094 30.781 279.812 30.188 Q 278.531 29.594 277.203 29.172 Q 275.875 28.750 274.500 28.500 Q 273.125 28.250 271.719 28.219 Q 270.312 28.188 268.875 28.375 Q 267.438 28.562 265.969 28.969 Q 264.500 29.375 263.000 30.000 Q 261.500 30.625 258.469 33.125 Q 255.438 35.625 250.875 40.000 Q 246.312 44.375 240.219 50.625 Q 234.125 56.875 226.500 65.000 Q 218.875 73.125 213.062 79.219 Q 207.250 85.312 203.250 89.375 Q 199.250 93.438 197.062 95.469 Q 194.875 97.500 194.500 97.500 Q 194.125 97.500 193.281 97.000 Q 192.438 96.500 191.125 95.500 Q 189.812 94.500 188.031 93.000 Q 186.250 91.500 184.000 89.500 Q 181.750 87.500 179.750 85.969 Q 177.750 84.438 176.000 83.375 Q 174.250 82.312 172.750 81.719 Q 171.250 81.125 170.000 81.000 Q 168.750 80.875 167.594 80.844 Q 166.438 80.812 165.375 80.875 Q 164.312 80.938 163.344 81.094 Q 162.375 81.250 161.500 81.500 Q 160.625 81.750 157.781 84.094 Q 154.938 86.438 150.125 90.875 Q 145.312 95.312 138.531 101.844 Q 131.750 108.375 123.000 117.000 Q 114.250 125.625 107.531 132.156 Q 100.812 138.688 96.125 143.125 Q 91.438 147.562 88.781 149.906 Q 86.125 152.250 85.500 152.500 Q 84.875 152.750 82.812 152.938 Q 80.750 153.125 77.250 153.250 Q 73.750 153.375 68.812 153.438 Q 63.875 153.500 57.500 153.500 Q 51.125 153.500 46.172 153.672 Q 41.219 153.844 37.688 154.188 Q 34.156 154.531 32.047 155.047 Q 29.938 155.562 29.250 156.250 Q 28.562 156.938 28.047 157.734 Q 27.531 158.531 27.188 159.438 Q 26.844 160.344 26.672 161.359 Z" fill="#C8202F"/>
    <circle cx="546" cy="153" r="20" fill="#F2B632"/>
  </g>
  <path d="M 61.328 145.605 L 17.578 145.605 Q 8.105 145.605 4.053 141.357 Q 0.000 137.109 0.000 127.832 L 0.000 20.215 Q 0.000 10.742 4.150 6.592 Q 8.301 2.441 17.578 2.441 L 63.965 2.441 Q 74.219 2.441 81.738 3.711 Q 89.258 4.980 95.215 8.594 Q 100.293 11.621 104.199 16.260 Q 108.105 20.898 110.156 26.514 Q 112.207 32.129 112.207 38.379 Q 112.207 59.863 90.723 69.824 Q 118.945 78.809 118.945 104.785 Q 118.945 116.797 112.793 126.416 Q 106.641 136.035 96.191 140.625 Q 89.648 143.359 81.152 144.482 Q 72.656 145.605 61.328 145.605 Z M 59.180 82.031 L 29.004 82.031 L 29.004 123.828 L 60.156 123.828 Q 89.551 123.828 89.551 102.637 Q 89.551 91.797 81.934 86.914 Q 74.316 82.031 59.180 82.031 Z M 29.004 24.219 L 29.004 61.230 L 55.566 61.230 Q 66.406 61.230 72.314 59.180 Q 78.223 57.129 81.348 51.367 Q 83.789 47.266 83.789 42.188 Q 83.789 31.348 76.074 27.783 Q 68.359 24.219 52.539 24.219 Z M 211.426 133.008 L 211.426 129.590 Q 206.641 135.645 201.367 139.746 Q 196.094 143.848 189.844 145.850 Q 183.594 147.852 175.586 147.852 Q 165.918 147.852 158.252 143.848 Q 150.586 139.844 146.387 132.812 Q 141.406 124.316 141.406 108.398 L 141.406 55.566 Q 141.406 47.559 145.020 43.604 Q 148.633 39.648 154.590 39.648 Q 160.645 39.648 164.355 43.652 Q 168.066 47.656 168.066 55.566 L 168.066 98.242 Q 168.066 107.520 169.629 113.818 Q 171.191 120.117 175.244 123.682 Q 179.297 127.246 186.230 127.246 Q 192.969 127.246 198.926 123.242 Q 204.883 119.238 207.617 112.793 Q 209.863 107.129 209.863 87.988 L 209.863 55.566 Q 209.863 47.656 213.574 43.652 Q 217.285 39.648 223.242 39.648 Q 229.199 39.648 232.812 43.604 Q 236.426 47.559 236.426 55.566 L 236.426 132.812 Q 236.426 140.430 232.959 144.238 Q 229.492 148.047 224.023 148.047 Q 218.555 148.047 214.990 144.092 Q 211.426 140.137 211.426 133.008 Z M 351.660 95.801 L 351.660 131.250 Q 351.660 139.648 347.852 143.848 Q 344.043 148.047 337.793 148.047 Q 331.738 148.047 327.979 143.848 Q 324.219 139.648 324.219 131.250 L 324.219 88.770 Q 324.219 78.711 323.535 73.145 Q 322.852 67.578 319.824 64.014 Q 316.797 60.449 310.254 60.449 Q 297.168 60.449 293.018 69.434 Q 288.867 78.418 288.867 95.215 L 288.867 131.250 Q 288.867 139.551 285.107 143.799 Q 281.348 148.047 275.195 148.047 Q 269.141 148.047 265.283 143.799 Q 261.426 139.551 261.426 131.250 L 261.426 54.980 Q 261.426 47.461 264.893 43.555 Q 268.359 39.648 274.023 39.648 Q 279.492 39.648 283.154 43.311 Q 286.816 46.973 286.816 53.418 L 286.816 55.957 Q 293.750 47.656 301.660 43.750 Q 309.570 39.844 319.238 39.844 Q 329.297 39.844 336.523 43.848 Q 343.750 47.852 348.438 55.957 Q 355.176 47.754 362.891 43.799 Q 370.605 39.844 379.980 39.844 Q 390.918 39.844 398.828 44.141 Q 406.738 48.438 410.645 56.445 Q 414.062 63.672 414.062 79.199 L 414.062 131.250 Q 414.062 139.648 410.254 143.848 Q 406.445 148.047 400.195 148.047 Q 394.141 148.047 390.283 143.799 Q 386.426 139.551 386.426 131.250 L 386.426 86.426 Q 386.426 77.832 385.693 72.656 Q 384.961 67.480 381.738 63.965 Q 378.516 60.449 371.973 60.449 Q 366.699 60.449 361.963 63.574 Q 357.227 66.699 354.590 71.973 Q 351.660 78.711 351.660 95.801 Z M 514.355 100.391 L 462.207 100.391 Q 462.305 109.473 465.869 116.406 Q 469.434 123.340 475.342 126.855 Q 481.250 130.371 488.379 130.371 Q 493.164 130.371 497.119 129.248 Q 501.074 128.125 504.785 125.732 Q 508.496 123.340 511.621 120.605 Q 514.746 117.871 519.727 113.184 Q 521.777 111.426 525.586 111.426 Q 529.688 111.426 532.227 113.672 Q 534.766 115.918 534.766 120.020 Q 534.766 123.633 531.934 128.467 Q 529.102 133.301 523.389 137.744 Q 517.676 142.188 509.033 145.117 Q 500.391 148.047 489.160 148.047 Q 463.477 148.047 449.219 133.398 Q 434.961 118.750 434.961 93.652 Q 434.961 81.836 438.477 71.729 Q 441.992 61.621 448.730 54.395 Q 455.469 47.168 465.332 43.311 Q 475.195 39.453 487.207 39.453 Q 502.832 39.453 514.014 46.045 Q 525.195 52.637 530.762 63.086 Q 536.328 73.535 536.328 84.375 Q 536.328 94.434 530.566 97.412 Q 524.805 100.391 514.355 100.391 Z M 462.207 85.254 L 510.547 85.254 Q 509.570 71.582 503.174 64.795 Q 496.777 58.008 486.328 58.008 Q 476.367 58.008 469.971 64.893 Q 463.574 71.777 462.207 85.254 Z M 558.789 131.836 L 558.789 16.211 Q 558.789 8.203 562.354 4.102 Q 565.918 0.000 571.973 0.000 Q 578.027 0.000 581.738 4.053 Q 585.449 8.105 585.449 16.211 L 585.449 131.836 Q 585.449 139.941 581.689 143.994 Q 577.930 148.047 571.973 148.047 Q 566.113 148.047 562.451 143.848 Q 558.789 139.648 558.789 131.836 Z M 687.402 100.391 L 635.254 100.391 Q 635.352 109.473 638.916 116.406 Q 642.480 123.340 648.389 126.855 Q 654.297 130.371 661.426 130.371 Q 666.211 130.371 670.166 129.248 Q 674.121 128.125 677.832 125.732 Q 681.543 123.340 684.668 120.605 Q 687.793 117.871 692.773 113.184 Q 694.824 111.426 698.633 111.426 Q 702.734 111.426 705.273 113.672 Q 707.812 115.918 707.812 120.020 Q 707.812 123.633 704.980 128.467 Q 702.148 133.301 696.436 137.744 Q 690.723 142.188 682.080 145.117 Q 673.438 148.047 662.207 148.047 Q 636.523 148.047 622.266 133.398 Q 608.008 118.750 608.008 93.652 Q 608.008 81.836 611.523 71.729 Q 615.039 61.621 621.777 54.395 Q 628.516 47.168 638.379 43.311 Q 648.242 39.453 660.254 39.453 Q 675.879 39.453 687.061 46.045 Q 698.242 52.637 703.809 63.086 Q 709.375 73.535 709.375 84.375 Q 709.375 94.434 703.613 97.412 Q 697.852 100.391 687.402 100.391 Z M 635.254 85.254 L 683.594 85.254 Q 682.617 71.582 676.221 64.795 Q 669.824 58.008 659.375 58.008 Q 649.414 58.008 643.018 64.893 Q 636.621 71.777 635.254 85.254 Z M 758.301 109.570 L 758.301 131.836 Q 758.301 139.941 754.492 143.994 Q 750.684 148.047 744.824 148.047 Q 739.062 148.047 735.352 143.945 Q 731.641 139.844 731.641 131.836 L 731.641 57.617 Q 731.641 39.648 744.629 39.648 Q 751.270 39.648 754.199 43.848 Q 757.129 48.047 757.422 56.250 Q 762.207 48.047 767.236 43.848 Q 772.266 39.648 780.664 39.648 Q 789.062 39.648 796.973 43.848 Q 804.883 48.047 804.883 54.980 Q 804.883 59.863 801.514 63.037 Q 798.145 66.211 794.238 66.211 Q 792.773 66.211 787.158 64.404 Q 781.543 62.598 777.246 62.598 Q 771.387 62.598 767.676 65.674 Q 763.965 68.750 761.914 74.805 Q 759.863 80.859 759.082 89.209 Q 758.301 97.559 758.301 109.570 Z M 891.895 70.215 L 843.066 124.805 L 895.312 124.805 Q 901.660 124.805 904.883 127.783 Q 908.105 130.762 908.105 135.449 Q 908.105 139.941 904.932 142.773 Q 901.758 145.605 895.312 145.605 L 823.047 145.605 Q 815.430 145.605 811.670 142.285 Q 807.910 138.965 807.910 133.203 Q 807.910 129.785 810.547 126.318 Q 813.184 122.852 821.484 113.574 Q 830.273 103.809 837.451 95.898 Q 844.629 87.988 850.781 81.104 Q 856.934 74.219 860.986 69.434 Q 865.039 64.648 867.480 61.230 L 827.832 61.230 Q 819.629 61.230 815.430 59.766 Q 811.230 58.301 811.230 52.051 Q 811.230 47.461 814.404 44.727 Q 817.578 41.992 823.438 41.992 L 884.668 41.992 Q 893.164 41.992 897.705 44.482 Q 902.246 46.973 902.246 53.418 Q 902.246 55.566 901.367 57.861 Q 900.488 60.156 899.414 61.621 Q 898.340 63.086 896.484 65.186 Q 894.629 67.285 891.895 70.215 Z M 995.410 100.391 L 943.262 100.391 Q 943.359 109.473 946.924 116.406 Q 950.488 123.340 956.396 126.855 Q 962.305 130.371 969.434 130.371 Q 974.219 130.371 978.174 129.248 Q 982.129 128.125 985.840 125.732 Q 989.551 123.340 992.676 120.605 Q 995.801 117.871 1000.781 113.184 Q 1002.832 111.426 1006.641 111.426 Q 1010.742 111.426 1013.281 113.672 Q 1015.820 115.918 1015.820 120.020 Q 1015.820 123.633 1012.988 128.467 Q 1010.156 133.301 1004.443 137.744 Q 998.730 142.188 990.088 145.117 Q 981.445 148.047 970.215 148.047 Q 944.531 148.047 930.273 133.398 Q 916.016 118.750 916.016 93.652 Q 916.016 81.836 919.531 71.729 Q 923.047 61.621 929.785 54.395 Q 936.523 47.168 946.387 43.311 Q 956.250 39.453 968.262 39.453 Q 983.887 39.453 995.068 46.045 Q 1006.250 52.637 1011.816 63.086 Q 1017.383 73.535 1017.383 84.375 Q 1017.383 94.434 1011.621 97.412 Q 1005.859 100.391 995.410 100.391 Z M 943.262 85.254 L 991.602 85.254 Q 990.625 71.582 984.229 64.795 Q 977.832 58.008 967.383 58.008 Q 957.422 58.008 951.025 64.893 Q 944.629 71.777 943.262 85.254 Z " fill="#0B1219" transform="translate(650 106)"/>
</svg>
